<?xml version="1.0" ?><svg viewBox="0 0 32 32" xmlns="http://www.w3.org/2000/svg"><defs><style>.cls-1{fill:black;}.cls-2{fill:red;}.cls-3{fill:red;}</style></defs><title/><g data-name="01" id="_01"><circle class="cls-1" cx="16" cy="16" r="13"/><path class="cls-2" d="M16,30A14,14,0,1,1,30,16a1,1,0,0,1-2,0,12,12,0,1,0-.52,3.52,1,1,0,1,1,1.91.58A13.92,13.92,0,0,1,16,30Z"/><circle class="cls-3" cx="16" cy="16" r="4"/><path class="cls-2" d="M16,21a5,5,0,1,1,5-5A5,5,0,0,1,16,21Zm0-8a3,3,0,1,0,3,3A3,3,0,0,0,16,13Z"/></g></svg>